<svg width="500" height="201" viewBox="0 0 500 201" fill="none" xmlns="http://www.w3.org/2000/svg">
<path d="M124 91.8397C130.667 95.6887 130.667 105.311 124 109.16L49.75 152.029C43.0833 155.878 34.75 151.066 34.75 143.368L34.75 57.6318C34.75 49.9338 43.0833 45.1225 49.75 48.9715L124 91.8397Z" fill="#000DFF" fill-opacity="0.7"/>
<path d="M177 122.84C183.667 126.689 183.667 136.311 177 140.16L102.75 183.029C96.0833 186.878 87.75 182.066 87.75 174.368L87.75 88.6318C87.75 80.9338 96.0833 76.1225 102.75 79.9715L177 122.84Z" fill="#000DFF" fill-opacity="0.7"/>
<path d="M177 60.8397C183.667 64.6887 183.667 74.3113 177 78.1603L102.75 121.029C96.0833 124.878 87.75 120.066 87.75 112.368L87.75 26.6318C87.75 18.9338 96.0833 14.1225 102.75 17.9715L177 60.8397Z" fill="#000DFF" fill-opacity="0.7"/>
<path d="M205.695 105.641V119H198.312V85.5312H219.312V91.0625H205.695V100.086H218.375V105.641H205.695ZM229.438 83.2344C230.578 83.2344 231.57 83.4844 232.414 83.9844C233.258 84.4688 233.68 85.3906 233.68 86.75C233.68 88.0781 233.258 89 232.414 89.5156C231.57 90.0156 230.578 90.2656 229.438 90.2656C228.25 90.2656 227.242 90.0156 226.414 89.5156C225.586 89 225.172 88.0781 225.172 86.75C225.172 85.3906 225.586 84.4688 226.414 83.9844C227.242 83.4844 228.25 83.2344 229.438 83.2344ZM225.641 93.3359H233.141V119H225.641V93.3359ZM248.727 83.375V119H241.227V83.375H248.727ZM286.836 92.8672C289.758 92.8672 291.969 93.6172 293.469 95.1172C294.984 96.6016 295.742 98.9922 295.742 102.289V119H288.266V104.188C288.266 102.219 287.953 100.812 287.328 99.9688C286.719 99.125 285.789 98.7031 284.539 98.7031C282.805 98.7031 281.586 99.3594 280.883 100.672C280.195 101.984 279.852 103.859 279.852 106.297V119H272.352V104.188C272.352 102.281 272.055 100.891 271.461 100.016C270.883 99.1406 269.969 98.7031 268.719 98.7031C266.891 98.7031 265.641 99.4297 264.969 100.883C264.312 102.32 263.984 104.391 263.984 107.094V119H256.484V93.3359H262.203L263.305 96.5938H263.539C264.242 95.4531 265.242 94.5469 266.539 93.875C267.852 93.2031 269.406 92.8672 271.203 92.8672C273.109 92.8672 274.688 93.1953 275.938 93.8516C277.203 94.5078 278.195 95.4531 278.914 96.6875H279.172C280 95.4375 281.078 94.4922 282.406 93.8516C283.75 93.1953 285.227 92.8672 286.836 92.8672ZM340.508 85.5312H348.711L336.148 119H327.734L315.172 85.5312H323.422L329.961 104.656C330.367 105.828 330.758 107.133 331.133 108.57C331.523 110.008 331.797 111.234 331.953 112.25C332.125 111.234 332.391 110.008 332.75 108.57C333.125 107.133 333.516 105.828 333.922 104.656L340.508 85.5312ZM356.609 83.2344C357.75 83.2344 358.742 83.4844 359.586 83.9844C360.43 84.4688 360.852 85.3906 360.852 86.75C360.852 88.0781 360.43 89 359.586 89.5156C358.742 90.0156 357.75 90.2656 356.609 90.2656C355.422 90.2656 354.414 90.0156 353.586 89.5156C352.758 89 352.344 88.0781 352.344 86.75C352.344 85.3906 352.758 84.4688 353.586 83.9844C354.414 83.4844 355.422 83.2344 356.609 83.2344ZM352.812 93.3359H360.312V119H352.812V93.3359ZM378.711 92.8672C382.242 92.8672 385.023 93.875 387.055 95.8906C389.102 97.8906 390.125 100.781 390.125 104.562V108.031H374.305C374.383 109.875 374.93 111.336 375.945 112.414C376.977 113.492 378.461 114.031 380.398 114.031C381.961 114.031 383.383 113.875 384.664 113.562C385.945 113.25 387.266 112.781 388.625 112.156V117.641C387.422 118.266 386.125 118.727 384.734 119.023C383.344 119.32 381.617 119.469 379.555 119.469C377.086 119.469 374.875 119 372.922 118.062C370.984 117.109 369.461 115.664 368.352 113.727C367.242 111.789 366.688 109.328 366.688 106.344C366.688 101.859 367.797 98.4922 370.016 96.2422C372.234 93.9922 375.133 92.8672 378.711 92.8672ZM378.945 98.0469C377.695 98.0469 376.672 98.4766 375.875 99.3359C375.078 100.195 374.609 101.484 374.469 103.203H383.188C383.172 101.719 382.805 100.492 382.086 99.5234C381.383 98.5391 380.336 98.0469 378.945 98.0469ZM417.945 118.977L414.711 106.695C414.492 105.898 414.281 105.016 414.078 104.047C413.875 103.078 413.695 102.164 413.539 101.305C413.398 100.445 413.289 99.7812 413.211 99.3125H413.047C412.984 99.7812 412.875 100.445 412.719 101.305C412.562 102.164 412.375 103.094 412.156 104.094C411.953 105.094 411.727 106.039 411.477 106.93L408.242 118.977H400.203L393.125 93.3125H400.602L403.156 104.422C403.344 105.203 403.523 106.086 403.695 107.07C403.883 108.055 404.047 109.039 404.188 110.023C404.328 110.992 404.422 111.852 404.469 112.602H404.656C404.719 111.867 404.836 110.992 405.008 109.977C405.195 108.945 405.383 107.969 405.57 107.047C405.773 106.109 405.93 105.43 406.039 105.008L409.109 93.3125H417.383L420.289 105.102C420.445 105.727 420.617 106.484 420.805 107.375C421.008 108.266 421.188 109.172 421.344 110.094C421.516 111.016 421.641 111.844 421.719 112.578H421.883C421.961 111.844 422.062 110.992 422.188 110.023C422.328 109.039 422.484 108.055 422.656 107.07C422.844 106.07 423.031 105.188 423.219 104.422L425.938 93.3125H433.227L426.102 118.977H417.945ZM448.273 92.8672C451.805 92.8672 454.586 93.875 456.617 95.8906C458.664 97.8906 459.688 100.781 459.688 104.562V108.031H443.867C443.945 109.875 444.492 111.336 445.508 112.414C446.539 113.492 448.023 114.031 449.961 114.031C451.523 114.031 452.945 113.875 454.227 113.562C455.508 113.25 456.828 112.781 458.188 112.156V117.641C456.984 118.266 455.688 118.727 454.297 119.023C452.906 119.32 451.18 119.469 449.117 119.469C446.648 119.469 444.438 119 442.484 118.062C440.547 117.109 439.023 115.664 437.914 113.727C436.805 111.789 436.25 109.328 436.25 106.344C436.25 101.859 437.359 98.4922 439.578 96.2422C441.797 93.9922 444.695 92.8672 448.273 92.8672ZM448.508 98.0469C447.258 98.0469 446.234 98.4766 445.438 99.3359C444.641 100.195 444.172 101.484 444.031 103.203H452.75C452.734 101.719 452.367 100.492 451.648 99.5234C450.945 98.5391 449.898 98.0469 448.508 98.0469ZM480.406 92.8672C480.906 92.8672 481.422 92.8984 481.953 92.9609C482.5 93.0234 482.93 93.0859 483.242 93.1484L482.539 100.039C482.195 99.9609 481.781 99.8906 481.297 99.8281C480.828 99.7656 480.242 99.7344 479.539 99.7344C478.586 99.7344 477.625 99.9297 476.656 100.32C475.688 100.695 474.875 101.336 474.219 102.242C473.562 103.148 473.234 104.406 473.234 106.016V119H465.734V93.3359H471.43L472.555 97.625H472.906C473.641 96.3125 474.672 95.1953 476 94.2734C477.328 93.3359 478.797 92.8672 480.406 92.8672Z" fill="black"/>
</svg>
